HIERARCHY
ROOT Hips
{
	OFFSET 0.000000 0.000000 0.000000 
	CHANNELS 6 Xposition Yposition Zposition Zrotation Yrotation Xrotation
	JOINT LeftUpLeg
	{
		OFFSET 1.363060 -1.794630 0.839290 
		CHANNELS 3 Zrotation Yrotation Xrotation
		JOINT LeftLeg
		{
			OFFSET 2.448110 -6.726130 0.000000 
			CHANNELS 3 Zrotation Yrotation Xrotation
			JOINT LeftFoot
			{
				OFFSET 2.562200 -7.039590 0.000000 
				CHANNELS 3 Zrotation Yrotation Xrotation
				JOINT LeftToeBase
				{
					OFFSET 0.157640 -0.433110 2.322550 
					CHANNELS 3 Zrotation Yrotation Xrotation
					End Site
					{
						OFFSET 0.000000 0.000000 0.000000 
					}
				}
			}
		}
	}
	JOINT RightUpLeg
	{
		OFFSET -1.305520 -1.794630 0.839290 
		CHANNELS 3 Zrotation Yrotation Xrotation
		JOINT RightLeg
		{
			OFFSET -2.542530 -6.985550 0.000000 
			CHANNELS 3 Zrotation Yrotation Xrotation
			JOINT RightFoot
			{
				OFFSET -2.568260 -7.056230 0.000000 
				CHANNELS 3 Zrotation Yrotation Xrotation
				JOINT RightToeBase
				{
					OFFSET -0.164730 -0.452590 2.363150 
					CHANNELS 3 Zrotation Yrotation Xrotation
					End Site
					{
						OFFSET 0.000000 0.000000 0.000000 
					}
				}
			}
		}
	}
	JOINT Spine
	{
		OFFSET 0.028270 2.035590 -0.193380 
		CHANNELS 3 Zrotation Yrotation Xrotation
		JOINT Spine1
		{
			OFFSET 0.056720 2.048850 -0.042750 
			CHANNELS 3 Zrotation Yrotation Xrotation
			JOINT Neck1
			{
				OFFSET -0.054170 1.746240 0.172020 
				CHANNELS 3 Zrotation Yrotation Xrotation
				JOINT Head
				{
					OFFSET 0.104070 1.761360 -0.123970 
					CHANNELS 3 Zrotation Yrotation Xrotation
					End Site
					{
						OFFSET 0.000000 0.000000 0.000000 
					}
				}
			}
			JOINT LeftArm
			{
				OFFSET 3.362410 1.200890 -0.311210 
				CHANNELS 3 Zrotation Yrotation Xrotation
				JOINT LeftForeArm
				{
					OFFSET 4.983000 -0.000000 -0.000000 
					CHANNELS 3 Zrotation Yrotation Xrotation
					JOINT LeftHand
					{
						OFFSET 3.483560 -0.000000 -0.000000 
						CHANNELS 3 Zrotation Yrotation Xrotation
						JOINT LeftHandIndex1
						{
							OFFSET 0.715260 -0.000000 -0.000000 
							CHANNELS 3 Zrotation Yrotation Xrotation
							End Site
							{
								OFFSET 0.000000 0.000000 0.000000 
							}
						}
					}
				}
			}
			JOINT RightArm
			{
				OFFSET -3.136600 1.374050 -0.404650 
				CHANNELS 3 Zrotation Yrotation Xrotation
				JOINT RightForeArm
				{
					OFFSET -5.241900 -0.000000 -0.000000 
					CHANNELS 3 Zrotation Yrotation Xrotation
					JOINT RightHand
					{
						OFFSET -3.444170 -0.000000 -0.000000 
						CHANNELS 3 Zrotation Yrotation Xrotation
						JOINT RightHandIndex1
						{
							OFFSET -0.622530 -0.000000 -0.000000 
							CHANNELS 3 Zrotation Yrotation Xrotation
							End Site
							{
								OFFSET 0.000000 0.000000 0.000000 
							}
						}
					}
				}
			}
		}
	}
}
MOTION
Frames: 7
Frame Time: 0.041667
44.034237 16.581306 -8.300838 6.389459 21.323885 -6.983116 -16.867487 -5.071666 -7.944305 0.039177 9.542705 24.752955 0.243575 -1.251791 -1.630755 0.620200 -5.039800 -14.022000 38.912641 -7.754612 31.704177 -0.448401 -7.028471 14.246049 -0.091619 19.584464 -12.025010 -3.727200 -11.788300 34.987200 -0.771926 4.591301 -1.173739 -4.192731 2.129083 2.807565 10.579426 -13.464743 14.353397 3.064400 -5.138100 14.609500 -87.836130 7.893397 19.844614 8.816606 -16.538622 -1.510044 0.356804 0.553459 34.462359 -7.125000 0.000000 0.000000 86.663670 7.425102 35.598404 -27.859532 42.750818 -9.448153 0.445300 -2.574357 -1.468499 7.125000 0.000000 0.000000 
44.127795 16.596967 -8.178005 7.578276 20.789017 -6.775942 -18.443154 -4.666287 -7.210486 0.005601 9.609617 24.785479 0.228766 -1.024488 -2.352554 0.620800 -5.042300 -14.029200 38.911264 -7.754629 31.706054 -0.448644 -7.028054 14.246284 -0.091865 19.584976 -12.024860 -3.727200 -11.788300 34.987200 -0.863897 4.467164 -1.160872 -3.854165 2.060020 2.717493 10.478821 -13.410161 14.420064 2.964700 -5.103500 14.634600 -87.423339 7.217352 19.856965 9.012265 -16.857901 -1.573770 0.322696 0.561687 33.817240 -7.125000 0.000000 0.000000 86.938506 6.627025 35.551395 -27.391604 42.341875 -9.199346 0.451010 -2.604787 -1.525996 7.125000 0.000000 0.000000 
44.252266 16.612628 -8.058448 8.492188 20.308199 -6.698323 -20.000590 -4.291253 -6.275057 -0.047492 9.610922 24.651862 0.229087 -0.929788 -3.108632 0.589000 -4.913600 -13.662400 38.913796 -7.755294 31.702037 -0.448613 -7.028320 14.246205 -0.091938 19.584789 -12.024889 -3.727200 -11.788300 34.987200 -0.940047 4.243264 -1.139716 -3.854059 1.957283 2.740549 10.190622 -13.365216 14.397638 2.705500 -5.075500 14.548700 -86.929304 6.601084 20.466365 9.247526 -17.226471 -1.645982 0.252031 0.576882 32.287766 -7.125000 0.000000 0.000000 87.446168 6.291679 35.010437 -26.316152 41.428090 -8.649679 0.467148 -2.653742 -0.762521 7.125000 0.000000 0.000000 
44.341626 16.631462 -7.947079 9.271682 19.679736 -6.566539 -21.084852 -3.816871 -5.718881 -0.067898 9.643708 24.654602 0.227553 -0.766625 -3.880157 0.612700 -5.009900 -13.936900 38.911967 -7.755226 31.704599 -0.448836 -7.027862 14.246427 -0.092158 19.585301 -12.024728 -3.727200 -11.788300 34.987200 -0.993581 4.088170 -1.157831 -3.559754 1.870637 2.576274 10.239996 -13.157180 14.455913 2.787100 -4.998200 14.633600 -86.452005 5.980211 20.962407 9.465342 -17.553915 -1.714249 0.205359 0.598739 30.683625 -7.125000 0.000000 0.000000 87.461327 5.718440 35.462290 -25.637971 40.808198 -8.315338 0.458460 -2.698938 -1.237668 7.125000 0.000000 0.000000 
44.425255 16.650399 -7.830593 10.123608 18.785524 -6.404276 -22.179801 -3.123843 -5.113380 -0.112292 9.612391 24.476836 0.227436 -0.577460 -4.681064 0.553600 -4.766100 -13.242800 38.913699 -7.755139 31.702401 -0.448811 -7.028222 14.246385 -0.092185 19.585045 -12.024839 -3.727200 -11.788300 34.987200 -1.081268 4.482065 -1.129665 -3.272809 2.060453 2.470522 10.556418 -13.309505 14.451139 3.182600 -5.155500 14.795400 -86.103901 5.107358 22.132884 9.650760 -17.798692 -1.767181 0.172787 0.619510 29.305818 -7.125000 0.000000 0.000000 87.265822 4.932884 35.002433 -25.134007 40.337041 -8.102496 0.434259 -2.732744 -1.926966 7.125000 0.000000 0.000000 
44.509293 16.670666 -7.714925 10.665456 17.921918 -6.265571 -22.920929 -2.467235 -4.570337 -0.150541 9.555055 24.267130 0.238842 -0.510699 -5.374051 0.402200 -4.071700 -11.278500 38.918814 -7.755809 31.694895 -0.448554 -7.029115 14.246067 -0.092106 19.584264 -12.025095 -3.727200 -11.788300 34.987200 -1.094568 4.361765 -1.041278 -2.878455 1.965554 2.875858 10.505845 -13.040710 14.358993 3.120700 -5.037900 14.711600 -85.851692 4.167620 21.874256 9.855626 -18.146393 -1.839260 0.127860 0.634055 27.994649 -7.125000 0.000000 0.000000 87.318627 4.684670 35.387915 -24.663566 39.892033 -7.850577 0.442428 -2.742045 -1.826486 7.125000 0.000000 0.000000 
44.592001 16.693186 -7.600486 11.165075 17.257695 -6.114209 -23.684400 -2.036009 -4.036869 -0.194327 9.503096 24.059140 0.242984 -0.350652 -6.042564 0.364000 -3.875800 -10.727500 38.918538 -7.756080 31.695035 -0.448665 -7.028903 14.246160 -0.092252 19.584514 -12.024995 -3.727200 -11.788300 34.987200 -1.090995 4.032223 -1.034927 -2.608018 1.769748 3.012323 10.548041 -12.615929 14.319383 3.139100 -4.847200 14.638200 -85.564276 3.497506 21.164401 10.074482 -18.515776 -1.920623 0.091319 0.645863 26.942699 -7.125000 0.000000 0.000000 88.343904 5.122626 33.920782 -22.559274 37.985611 -6.917714 0.293752 -2.800543 0.822598 7.125000 0.000000 0.000000 
